HIERARCHY
ROOT Joint1
{
	OFFSET 0.000000 0.000000 0.000000
	CHANNELS 6 Xposition Yposition Zposition Xrotation Yrotation Zrotation
	JOINT Joint2
	{
		OFFSET -0.000000 0.000000 1.456275
		CHANNELS 6 Xposition Yposition Zposition Xrotation Yrotation Zrotation
		JOINT Joint3
		{
			OFFSET -0.000000 0.000002 1.471446
			CHANNELS 6 Xposition Yposition Zposition Xrotation Yrotation Zrotation
			JOINT Joint4
			{
				OFFSET 0.625745 0.000000 0.917755
				CHANNELS 6 Xposition Yposition Zposition Xrotation Yrotation Zrotation
				JOINT Joint5
				{
					OFFSET -0.629534 0.000001 0.940221
					CHANNELS 6 Xposition Yposition Zposition Xrotation Yrotation Zrotation
					JOINT Joint6
					{
						OFFSET -0.000001 0.113772 1.960660
						CHANNELS 6 Xposition Yposition Zposition Xrotation Yrotation Zrotation
						JOINT Joint7
						{
							OFFSET -0.669733 -0.113771 0.388340
							CHANNELS 6 Xposition Yposition Zposition Xrotation Yrotation Zrotation
							End Site
							{
								OFFSET 0.005509 0.005509 0.438980
							}
						}
					}
				}
			}
		}
	}
}
MOTION
Frames: 12
Frame Time: 0.041667
0.000000 0.000000 0.000000 -0.000000 1.019410 0.839815 -0.000000 0.000000 1.456275 0.000000 -67.323262 -0.000000 -0.000000 0.000002 1.471446 -0.000000 -1.133462 -25.755696 0.625745 0.000000 0.917755 0.000001 146.937969 -0.000001 -0.629534 0.000001 0.940221 -0.000001 1.709737 10.805072 -0.000001 0.113772 1.960660 -88.303903 80.537629 -0.000004 -0.669733 -0.113771 0.388340 0.296184 2.728112 55.096739 
0.000000 0.000000 0.000000 -0.000000 1.019410 0.815960 -0.000000 0.000000 1.456275 0.000000 -66.694646 -0.000000 -0.000000 0.000002 1.471446 -0.000000 -1.133464 -25.031791 0.625745 0.000000 0.917755 0.000004 146.602634 -0.000001 -0.629534 0.000001 0.940221 -0.000001 1.709737 10.500596 -0.000001 0.113772 1.960661 -88.303903 80.803119 -0.000015 -0.669733 -0.113771 0.388339 0.288420 2.767199 57.342880 
0.000000 0.000000 0.000000 -0.000000 1.019410 0.790885 -0.000000 0.000000 1.456275 -0.000000 -66.033873 -0.000000 -0.000000 0.000002 1.471446 -0.000000 -1.133463 -24.270852 0.625744 0.000000 0.917755 0.000003 146.250155 0.000002 -0.629534 0.000001 0.940221 -0.000001 1.709737 10.180540 -0.000001 0.113772 1.960660 -88.303909 81.082200 -0.000024 -0.669734 -0.113771 0.388340 0.278612 2.807932 59.704043 
0.000000 0.000000 0.000000 -0.000000 1.019410 0.765200 -0.000000 0.000000 1.456275 -0.000000 -65.357028 0.000000 -0.000000 0.000002 1.471446 -0.000000 -1.133463 -23.491406 0.625745 0.000000 0.917756 0.000002 145.889084 -0.000001 -0.629534 0.000001 0.940220 -0.000000 1.709738 9.852701 -0.000001 0.113772 1.960660 -88.303903 81.368085 -0.000013 -0.669733 -0.113771 0.388340 0.266831 2.849201 62.122715 
0.000000 0.000000 0.000000 -0.000000 1.019410 0.739516 -0.000000 0.000000 1.456275 0.000000 -64.680198 -0.000000 -0.000000 0.000002 1.471446 -0.000000 -1.133462 -22.711984 0.625745 0.000000 0.917755 0.000002 145.528040 -0.000001 -0.629534 0.000001 0.940221 -0.000001 1.709737 9.524875 -0.000001 0.113772 1.960661 -88.303896 81.653942 -0.000016 -0.669733 -0.113771 0.388339 0.253317 2.889932 64.541435 
0.000000 0.000000 0.000000 -0.000000 1.019410 0.714442 -0.000000 -0.000000 1.456275 0.000000 -64.019452 -0.000000 -0.000001 0.000002 1.471446 -0.000000 -1.133462 -21.951070 0.625745 0.000001 0.917755 0.000002 145.175562 -0.000002 -0.629533 0.000001 0.940221 -0.000001 1.709737 9.204830 -0.000001 0.113772 1.960660 -88.303903 81.933023 -0.000014 -0.669733 -0.113771 0.388341 0.238475 2.929115 66.902782 
0.000000 0.000000 0.000000 -0.000000 1.019410 0.690587 -0.000000 0.000000 1.456275 0.000000 -63.390849 0.000000 -0.000000 0.000002 1.471446 -0.000000 -1.133462 -21.227176 0.625744 0.000000 0.917755 0.000002 144.840227 -0.000004 -0.629534 0.000001 0.940221 0.000000 1.709736 8.900360 -0.000001 0.113772 1.960660 -88.303909 82.198513 -0.000014 -0.669733 -0.113771 0.388340 0.222867 2.965789 69.149327 
0.000000 0.000000 0.000000 -0.000000 1.019410 0.668562 -0.000000 0.000000 1.456275 0.000000 -62.810447 -0.000000 -0.000000 0.000002 1.471446 -0.000000 -1.133461 -20.558791 0.625744 0.000000 0.917755 0.000003 144.530614 -0.000001 -0.629534 0.000001 0.940221 0.000001 1.709737 8.619233 -0.000002 0.113772 1.960661 -88.303909 82.443655 -0.000021 -0.669734 -0.113771 0.388339 0.207186 2.999094 71.223683 
0.000000 0.000000 0.000000 -0.000000 1.019410 0.648694 -0.000000 0.000000 1.456275 0.000000 -62.286872 -0.000000 -0.000000 0.000002 1.471446 -0.000000 -1.133461 -19.955852 0.625744 0.000000 0.917755 0.000004 144.251314 -0.000001 -0.629534 0.000001 0.940221 0.000000 1.709737 8.365634 -0.000001 0.113772 1.960660 -88.303909 82.664796 -0.000022 -0.669733 -0.113771 0.388340 0.192012 3.028628 73.094991 
0.000000 0.000000 0.000000 -0.000000 1.019410 0.630180 -0.000000 0.000000 1.456275 0.000000 -61.798998 -0.000000 -0.000000 0.000002 1.471446 -0.000000 -1.133462 -19.394020 0.625745 0.000000 0.917755 0.000002 143.991056 0.000000 -0.629534 0.000001 0.940221 -0.000000 1.709737 8.129328 -0.000001 0.113772 1.960660 -88.303909 82.870856 -0.000026 -0.669733 -0.113771 0.388340 0.177010 3.055692 74.838765 
0.000000 0.000000 0.000000 -0.000000 1.019410 0.611936 -0.000000 0.000000 1.456275 0.000000 -61.318262 -0.000000 -0.000000 0.000002 1.471446 -0.000000 -1.133459 -18.840397 0.625745 0.000000 0.917755 0.000004 143.734597 -0.000001 -0.629533 0.000001 0.940221 0.000001 1.709736 7.896466 -0.000001 0.113772 1.960660 -88.303923 83.073904 -0.000014 -0.669733 -0.113771 0.388340 0.161428 3.081899 76.557125 
0.000000 0.000000 0.000000 -0.000000 1.019410 0.592879 -0.000000 0.000000 1.456275 -0.000000 -60.816066 -0.000000 -0.000000 0.000002 1.471446 -0.000000 -1.133462 -18.262078 0.625744 0.000000 0.917755 0.000002 143.466716 -0.000002 -0.629533 0.000001 0.940221 0.000000 1.709736 7.653225 -0.000001 0.113772 1.960661 -88.303923 83.286009 -0.000020 -0.669733 -0.113771 0.388341 0.144315 3.108767 78.352174 
